# xmcd
#
# Track frame offsets: 
#        150
#        19971
#        36780
#        50137
#        69184
#        83735
#
# Disc length: 1248 seconds
#
# Revision: 2
# Processed by: cddbd v1.5.2PL0 Copyright (c) Steve Scherf et al.
# Submitted via: ExactAudioCopy v1.1
#
DISCID=4704de06
DTITLE=Black Stone Cherry - Back To Blues
DYEAR=2017
DGENRE=Blues
TTITLE0=Built For Comfort
TTITLE1=Champagne And Reefer
TTITLE2=Palace Of The King
TTITLE3=Hoochie Coochie Man
TTITLE4=Born Under A Bad Sign
TTITLE5=I Want To Be Loved
EXTD=
EXTT0=
EXTT1=
EXTT2=
EXTT3=
EXTT4=
EXTT5=
PLAYORDER=
